<?xml version="1.0" encoding="UTF-8"?>
<svg id="Layer_2" data-name="Layer 2" xmlns="http://www.w3.org/2000/svg" xmlns:xlink="http://www.w3.org/1999/xlink" viewBox="0 0 10 10">
  <defs>
    <style>
      .cls-1 {
        fill: url(#linear-gradient);
      }

      .cls-2 {
        fill: #fff;
      }
    </style>
    <linearGradient id="linear-gradient" x1="1760.56" y1="1878.99" x2="1770.56" y2="1878.99" gradientTransform="translate(-2463.52 -739.47) rotate(-30)" gradientUnits="userSpaceOnUse">
      <stop offset="0" stop-color="#00d58c"/>
      <stop offset="1" stop-color="#0082ff"/>
    </linearGradient>
  </defs>
  <g id="Layer_1-2" data-name="Layer 1">
    <g>
      <circle class="cls-1" cx="5" cy="5" r="5"/>
      <path class="cls-2" d="M8.26,6.66L6.03,2.25h0s0-.03,0-.03c-.07-.13-.22-.22-.37-.22-.09,0-.17,.03-.24,.07l-.18,.12s0,0,0,0L1.27,4.79c-.09,.06-.15,.15-.17,.25-.02,.1,0,.21,.06,.3,.04,.06,.09,.1,.14,.13,.02,.01,.04,.02,.07,.02l.91,.18c.38,.07,.75,.2,1.09,.38l-.31,.61c-.05,.1-.06,.21-.02,.31,.03,.1,.11,.18,.2,.23,.06,.03,.12,.04,.18,.04,.03,0,.05,0,.08-.01l.88-.31s.06-.02,.08-.03c0,0,0,0,0,0,0,0,0,0,.01,0,.02,.02,.04,.05,.07,.08l.59,.69s.04,.04,.06,.05c.06,.03,.13,.05,.2,.05,.14,0,.28-.08,.35-.2,.03-.05,.05-.11,.05-.18,0,0,0,0,0,0l.04-.68c.39,.01,.78,.09,1.15,.22l.86,.3s.05,.01,.08,.01c.22,0,.4-.18,.4-.4,0-.06-.01-.13-.04-.18Zm-.49,.06l-.65-.23c-.4-.14-.81-.22-1.23-.24-.01,0-.02,0-.03-.02,0,0-.01-.02-.01-.03l.16-2.97,1.77,3.49Zm-4.02-.43c.08,.06,.14,.1,.17,.12,0,0,0,0,0,0h0c.05,.04,.1,.08,.15,.12l-.55,.19,.22-.43Zm-.17-.69s-.02,.03-.04,.03c0,0-.01,0-.02,0-.37-.19-.76-.32-1.17-.4l-.7-.14,3.27-2.13c-.37,.72-.91,1.81-1.34,2.65Zm1.42,1.16h0s.1-.02,.15-.02h0s0,0,0,0c.05,0,.11-.01,.16-.02,0,0,.01,0,.02,0l-.03,.49-.37-.43h.05Zm.29-.51c-.06,0-.12,.01-.19,.02h0c-.06,0-.12,.02-.17,.03h0s-.1,.02-.14,.03c0,0-.01,0-.01,0h0s-.03,0-.04,0h-.02s-.02,0-.02,0c-.02,0-.04,0-.06,.02h-.02s0,0,0,0c0,0-.01,0-.02,0-.12-.12-.25-.23-.38-.32-.05-.04-.15-.1-.21-.15-.01,0-.02-.03-.01-.04,.51-1,1.28-2.52,1.6-3.16l-.19,3.54s0,.02-.02,.02c-.02,0-.05,0-.07,0Z"/>
    </g>
  </g>
</svg>